<?xml version="1.0" standalone="no"?>
<!DOCTYPE svg PUBLIC "-//W3C//DTD SVG 20010904//EN"
 "http://www.w3.org/TR/2001/REC-SVG-20010904/DTD/svg10.dtd">
<svg version="1.0" xmlns="http://www.w3.org/2000/svg"
 width="200.000000pt" height="200.000000pt" viewBox="0 0 200.000000 200.000000"
 preserveAspectRatio="xMidYMid meet">
<metadata>
Created by potrace 1.11, written by Peter Selinger 2001-2013
</metadata>
<g transform="translate(0.000000,200.000000) scale(0.100000,-0.100000)"
fill="#000000" stroke="none">
<path d="M215 1990 c-3 -5 -2 -10 4 -10 5 0 13 5 16 10 3 6 2 10 -4 10 -5 0
-13 -4 -16 -10z"/>
<path d="M278 1993 c7 -3 16 -2 19 1 4 3 -2 6 -13 5 -11 0 -14 -3 -6 -6z"/>
<path d="M355 1988 c17 -5 36 -10 44 -10 8 -1 23 -8 33 -17 10 -9 31 -14 48
-13 33 4 74 -14 65 -29 -9 -14 18 -10 39 6 15 11 16 15 5 19 -8 2 -21 7 -29 9
-8 3 2 6 23 6 33 1 37 -2 33 -17 -4 -10 1 -27 9 -38 15 -19 16 -19 13 1 -1 11
1 26 6 34 11 18 -30 50 -55 44 -11 -3 -19 -1 -19 4 0 5 -55 9 -122 10 -91 0
-115 -2 -93 -9z"/>
<path d="M630 1988 c0 -15 18 -17 30 -3 9 11 8 14 -9 12 -12 -1 -21 -5 -21 -9z"/>
<path d="M691 1986 c-9 -11 -7 -15 9 -19 17 -4 19 -3 10 8 -8 10 -7 14 2 18 8
3 8 6 2 6 -6 1 -17 -5 -23 -13z"/>
<path d="M755 1990 c3 -5 15 -10 26 -10 11 0 17 5 14 10 -3 6 -15 10 -26 10
-11 0 -17 -4 -14 -10z"/>
<path d="M820 1989 c0 -6 7 -8 16 -5 10 4 26 -1 37 -11 20 -17 20 -17 14 0 -4
10 -7 21 -7 23 0 2 -13 4 -30 4 -16 0 -30 -5 -30 -11z"/>
<path d="M905 1984 c9 -9 18 -14 21 -11 9 9 -6 27 -22 27 -13 0 -13 -2 1 -16z"/>
<path d="M944 1993 c11 -11 66 -12 66 -2 0 5 -16 9 -37 9 -20 0 -33 -3 -29 -7z"/>
<path d="M1065 1991 c-38 -6 -38 -7 -13 -14 28 -8 58 -1 58 14 0 5 -1 8 -2 8
-2 -1 -21 -5 -43 -8z"/>
<path d="M115 1980 c4 -6 11 -8 16 -5 14 9 11 15 -7 15 -8 0 -12 -5 -9 -10z"/>
<path d="M350 1959 c0 -5 5 -7 10 -4 6 3 10 8 10 11 0 2 -4 4 -10 4 -5 0 -10
-5 -10 -11z"/>
<path d="M940 1955 c-7 -8 -20 -13 -29 -10 -10 3 -23 -3 -31 -15 -19 -26 -37
-25 -61 3 -17 20 -25 15 -20 -15 0 -5 -11 -8 -25 -8 -21 0 -24 -3 -15 -13 13
-16 5 -28 -14 -21 -22 9 -26 -12 -6 -30 15 -14 24 -15 40 -6 17 9 21 8 21 -6
0 -14 4 -13 20 6 21 24 17 45 -6 36 -8 -3 -14 1 -14 8 0 10 12 12 48 8 26 -3
50 -9 53 -14 3 -4 20 -12 37 -17 41 -12 43 6 2 20 -26 10 -28 13 -17 32 7 12
19 27 27 33 8 7 12 15 9 18 -3 4 -12 0 -19 -9z"/>
<path d="M1160 1960 c0 -5 15 -10 33 -10 24 0 28 3 17 10 -20 13 -50 13 -50 0z"/>
<path d="M90 1950 c8 -5 22 -9 30 -9 10 0 8 3 -5 9 -27 12 -43 12 -25 0z"/>
<path d="M1110 1953 c0 -4 5 -15 10 -23 8 -13 10 -13 10 2 0 9 -4 20 -10 23
-5 3 -10 3 -10 -2z"/>
<path d="M1290 1950 c0 -5 5 -10 10 -10 6 0 10 5 10 10 0 6 -4 10 -10 10 -5 0
-10 -4 -10 -10z"/>
<path d="M1020 1940 c0 -5 5 -10 11 -10 5 0 7 5 4 10 -3 6 -8 10 -11 10 -2 0
-4 -4 -4 -10z"/>
<path d="M1265 1940 c3 -5 8 -10 11 -10 2 0 4 5 4 10 0 6 -5 10 -11 10 -5 0
-7 -4 -4 -10z"/>
<path d="M688 1933 c7 -3 16 -2 19 1 4 3 -2 6 -13 5 -11 0 -14 -3 -6 -6z"/>
<path d="M713 1925 c-9 -10 -9 -16 -2 -20 14 -9 22 0 17 18 -2 13 -5 13 -15 2z"/>
<path d="M1080 1910 c10 -18 22 -24 43 -21 4 0 7 -6 7 -15 0 -12 -3 -14 -13
-6 -7 6 -18 7 -26 3 -18 -11 21 -51 49 -51 14 0 20 -7 20 -21 0 -19 -4 -21
-39 -16 -21 2 -45 1 -52 -4 -14 -9 -9 -10 71 -13 l35 -1 0 53 c1 29 -3 56 -7
58 -4 3 -8 -7 -8 -21 0 -14 -4 -24 -10 -20 -5 3 -7 12 -4 20 8 20 -14 55 -31
49 -8 -4 -18 1 -21 10 -3 9 -10 16 -15 16 -6 0 -5 -9 1 -20z"/>
<path d="M496 1907 c3 -10 9 -15 12 -12 3 3 0 11 -7 18 -10 9 -11 8 -5 -6z"/>
<path d="M950 1900 c0 -5 9 -10 21 -10 11 0 17 5 14 10 -3 6 -13 10 -21 10 -8
0 -14 -4 -14 -10z"/>
<path d="M1225 1891 c-3 -6 -12 -8 -20 -4 -10 3 -15 -2 -15 -17 0 -20 1 -20
16 -6 8 9 19 14 24 11 5 -3 11 -1 14 4 4 5 2 12 -3 15 -5 4 -12 2 -16 -3z"/>
<path d="M1370 1890 c0 -5 5 -10 11 -10 5 0 7 5 4 10 -3 6 -8 10 -11 10 -2 0
-4 -4 -4 -10z"/>
<path d="M997 1874 c-9 -10 4 -34 19 -34 8 0 14 -5 14 -12 0 -6 2 -9 5 -6 3 3
1 17 -4 32 -10 25 -21 32 -34 20z"/>
<path d="M866 1862 c-2 -4 4 -13 14 -19 15 -10 17 -9 13 8 -5 20 -18 25 -27
11z"/>
<path d="M673 1838 c1 -7 -8 -13 -20 -13 -21 0 -45 -14 -27 -16 63 -7 97 -7
88 -1 -6 4 -13 15 -17 25 -7 19 -28 24 -24 5z"/>
<path d="M968 1833 c7 -3 16 -2 19 1 4 3 -2 6 -13 5 -11 0 -14 -3 -6 -6z"/>
<path d="M1053 1833 c4 -3 2 -12 -4 -20 -13 -15 -1 -17 20 -4 15 9 7 31 -11
31 -6 0 -8 -3 -5 -7z"/>
<path d="M1190 1830 c0 -5 5 -10 11 -10 5 0 7 5 4 10 -3 6 -8 10 -11 10 -2 0
-4 -4 -4 -10z"/>
<path d="M730 1810 c0 -11 5 -20 10 -20 6 0 10 9 10 20 0 11 -4 20 -10 20 -5
0 -10 -9 -10 -20z"/>
<path d="M770 1800 c0 -5 5 -10 10 -10 6 0 10 5 10 10 0 6 -4 10 -10 10 -5 0
-10 -4 -10 -10z"/>
<path d="M850 1789 c0 -5 5 -7 10 -4 6 3 10 8 10 11 0 2 -4 4 -10 4 -5 0 -10
-5 -10 -11z"/>
<path d="M1193 1785 c0 -8 4 -12 9 -9 4 3 8 9 8 15 0 5 -4 9 -8 9 -5 0 -9 -7
-9 -15z"/>
<path d="M1255 1786 c32 -14 41 -13 30 3 -3 6 -18 11 -33 11 l-27 -1 30 -13z"/>
<path d="M745 1760 c-3 -5 -1 -10 4 -10 6 0 11 5 11 10 0 6 -2 10 -4 10 -3 0
-8 -4 -11 -10z"/>
<path d="M865 1760 c3 -5 8 -10 11 -10 2 0 4 5 4 10 0 6 -5 10 -11 10 -5 0 -7
-4 -4 -10z"/>
<path d="M896 1761 c-4 -7 -5 -15 -2 -18 9 -9 19 4 14 18 -4 11 -6 11 -12 0z"/>
<path d="M690 1750 c0 -5 5 -10 10 -10 6 0 10 5 10 10 0 6 -4 10 -10 10 -5 0
-10 -4 -10 -10z"/>
<path d="M655 1730 c-3 -5 -1 -10 4 -10 6 0 11 5 11 10 0 6 -2 10 -4 10 -3 0
-8 -4 -11 -10z"/>
<path d="M1510 1669 c0 -5 5 -7 10 -4 6 3 10 8 10 11 0 2 -4 4 -10 4 -5 0 -10
-5 -10 -11z"/>
<path d="M1260 1620 c-12 -8 -10 -10 11 -10 14 0 31 -6 38 -12 11 -11 11 -9 2
10 -13 24 -27 27 -51 12z"/>
<path d="M1468 1613 c6 -2 18 -2 25 0 6 3 1 5 -13 5 -14 0 -19 -2 -12 -5z"/>
<path d="M1438 1593 c7 -3 16 -2 19 1 4 3 -2 6 -13 5 -11 0 -14 -3 -6 -6z"/>
<path d="M1670 1595 c0 -5 5 -17 10 -25 5 -8 10 -10 10 -5 0 6 -5 17 -10 25
-5 8 -10 11 -10 5z"/>
<path d="M1736 1585 c4 -8 8 -15 10 -15 2 0 4 7 4 15 0 8 -4 15 -10 15 -5 0
-7 -7 -4 -15z"/>
<path d="M1618 1568 c9 -9 15 -9 24 0 9 9 7 12 -12 12 -19 0 -21 -3 -12 -12z"/>
<path d="M1338 1543 c7 -3 16 -2 19 1 4 3 -2 6 -13 5 -11 0 -14 -3 -6 -6z"/>
<path d="M1535 1541 c-3 -5 -1 -12 5 -16 5 -3 10 1 10 9 0 18 -6 21 -15 7z"/>
<path d="M945 1510 c-3 -5 -1 -10 4 -10 6 0 11 5 11 10 0 6 -2 10 -4 10 -3 0
-8 -4 -11 -10z"/>
<path d="M1320 1440 c0 -5 5 -10 10 -10 6 0 10 5 10 10 0 6 -4 10 -10 10 -5 0
-10 -4 -10 -10z"/>
<path d="M895 1430 c3 -5 8 -10 11 -10 2 0 4 5 4 10 0 6 -5 10 -11 10 -5 0 -7
-4 -4 -10z"/>
<path d="M218 1343 c6 -2 9 -10 6 -15 -4 -7 -2 -8 5 -4 13 9 5 26 -12 25 -9 0
-8 -2 1 -6z"/>
<path d="M539 1287 c-21 -16 -33 -64 -16 -70 7 -3 5 -6 -5 -6 -10 -1 -18 -6
-18 -12 0 -5 -4 -7 -10 -4 -5 3 -10 1 -10 -4 0 -6 4 -11 10 -11 5 0 7 -8 4
-17 -4 -10 3 -5 14 10 12 18 22 25 26 18 4 -6 4 -16 0 -23 -4 -7 -3 -8 4 -4 7
4 12 15 12 25 0 9 7 26 15 37 17 23 19 34 5 34 -5 0 -10 -7 -10 -15 0 -8 -4
-15 -9 -15 -6 0 -9 9 -8 20 1 12 8 20 19 20 11 0 15 5 12 15 -7 18 -14 18 -35
2z"/>
<path d="M1810 1296 c0 -2 7 -7 16 -10 8 -3 12 -2 9 4 -6 10 -25 14 -25 6z"/>
<path d="M87 1218 c-2 -7 -1 -22 3 -33 6 -16 8 -13 7 13 0 35 -2 39 -10 20z"/>
<path d="M157 1177 c-3 -8 1 -14 8 -14 7 0 11 6 8 14 -3 7 -6 13 -8 13 -2 0
-5 -6 -8 -13z"/>
<path d="M283 1178 c2 -7 0 -21 -4 -30 -6 -10 -5 -19 1 -23 6 -4 10 -3 9 2 -4
24 2 35 18 29 15 -6 15 -4 -2 14 -21 23 -29 26 -22 8z"/>
<path d="M16 1133 c9 -38 14 -41 14 -10 0 19 6 27 23 30 16 3 13 5 -11 6 -30
1 -32 -1 -26 -26z"/>
<path d="M942 1140 c-50 -30 -67 -90 -43 -148 26 -62 132 -84 183 -38 14 14
29 22 34 18 4 -4 4 -1 0 5 -4 7 -2 22 5 34 16 31 -4 91 -42 123 -38 32 -90 34
-137 6z"/>
<path d="M520 1125 c-7 -9 -19 -14 -27 -11 -8 3 -12 2 -9 -3 3 -4 -6 -13 -21
-20 -14 -6 -23 -14 -21 -17 7 -6 98 46 98 57 0 13 -6 11 -20 -6z"/>
<path d="M163 1122 c-7 -4 -9 -13 -4 -21 6 -9 10 -7 14 8 3 12 4 21 4 21 -1 0
-7 -4 -14 -8z"/>
<path d="M355 1117 c-8 -4 -15 -13 -15 -20 0 -8 3 -8 9 1 4 8 14 13 22 12 23
-4 39 0 39 8 0 10 -36 10 -55 -1z"/>
<path d="M132 1085 c0 -16 2 -22 5 -12 2 9 2 23 0 30 -3 6 -5 -1 -5 -18z"/>
<path d="M221 1074 c0 -11 3 -14 6 -6 3 7 2 16 -1 19 -3 4 -6 -2 -5 -13z"/>
<path d="M62 1060 c0 -14 2 -19 5 -12 2 6 2 18 0 25 -3 6 -5 1 -5 -13z"/>
<path d="M136 985 c8 -37 14 -45 14 -19 0 10 -5 26 -10 34 -8 11 -9 7 -4 -15z"/>
<path d="M220 1004 c0 -6 7 -19 16 -30 14 -18 14 -18 3 6 -14 31 -19 36 -19
24z"/>
<path d="M1570 996 c0 -2 7 -7 16 -10 8 -3 12 -2 9 4 -6 10 -25 14 -25 6z"/>
<path d="M66 982 c-3 -6 -1 -14 5 -17 14 -9 20 -2 10 14 -6 8 -11 9 -15 3z"/>
<path d="M271 913 c6 -7 16 -10 23 -6 6 4 22 6 36 5 20 -2 22 -1 10 7 -8 6
-29 10 -47 9 -26 -1 -30 -4 -22 -15z"/>
<path d="M365 920 c3 -5 11 -10 16 -10 6 0 7 5 4 10 -3 6 -11 10 -16 10 -6 0
-7 -4 -4 -10z"/>
<path d="M400 920 c0 -5 5 -10 10 -10 6 0 10 5 10 10 0 6 -4 10 -10 10 -5 0
-10 -4 -10 -10z"/>
<path d="M450 920 c0 -5 4 -10 9 -10 6 0 13 5 16 10 3 6 -1 10 -9 10 -9 0 -16
-4 -16 -10z"/>
<path d="M185 910 c-19 -8 -19 -9 2 -9 12 -1 26 -7 30 -13 4 -7 17 -20 28 -28
15 -11 14 -7 -5 15 -14 17 -27 33 -30 36 -3 4 -14 3 -25 -1z"/>
<path d="M307 887 c3 -5 0 -13 -7 -17 -7 -4 -8 -10 -3 -13 6 -4 15 4 21 17 8
18 7 23 -4 23 -7 0 -10 -5 -7 -10z"/>
<path d="M85 880 c-3 -5 -12 -7 -20 -3 -8 3 -15 0 -15 -6 0 -14 49 -14 70 -1
8 5 13 10 10 11 -3 0 -13 2 -22 4 -10 2 -20 -1 -23 -5z"/>
<path d="M200 865 c13 -14 27 -25 31 -25 5 0 -3 11 -17 25 -14 14 -28 25 -31
25 -4 0 4 -11 17 -25z"/>
<path d="M1690 876 c0 -2 8 -10 18 -17 15 -13 16 -12 3 4 -13 16 -21 21 -21
13z"/>
<path d="M10 860 c0 -5 7 -10 16 -10 8 0 12 5 9 10 -3 6 -10 10 -16 10 -5 0
-9 -4 -9 -10z"/>
<path d="M1405 860 c4 -6 11 -8 16 -5 14 9 11 15 -7 15 -8 0 -12 -5 -9 -10z"/>
<path d="M1230 830 c8 -5 20 -10 25 -10 6 0 3 5 -5 10 -8 5 -19 10 -25 10 -5
0 -3 -5 5 -10z"/>
<path d="M1195 820 c3 -5 8 -10 11 -10 2 0 4 5 4 10 0 6 -5 10 -11 10 -5 0 -7
-4 -4 -10z"/>
<path d="M37 769 c7 -7 15 -10 18 -7 3 3 -2 9 -12 12 -14 6 -15 5 -6 -5z"/>
<path d="M77 753 c-4 -3 -7 -11 -7 -17 0 -6 5 -5 12 2 6 6 9 14 7 17 -3 3 -9
2 -12 -2z"/>
<path d="M1677 729 c7 -7 15 -10 18 -7 3 3 -2 9 -12 12 -14 6 -15 5 -6 -5z"/>
<path d="M1750 725 c-10 -12 -10 -15 4 -15 9 0 16 7 16 15 0 8 -2 15 -4 15 -2
0 -9 -7 -16 -15z"/>
<path d="M105 720 c3 -5 8 -10 11 -10 2 0 4 5 4 10 0 6 -5 10 -11 10 -5 0 -7
-4 -4 -10z"/>
<path d="M1598 723 c7 -3 16 -2 19 1 4 3 -2 6 -13 5 -11 0 -14 -3 -6 -6z"/>
<path d="M1915 689 c-11 -16 -1 -19 13 -3 7 8 8 14 3 14 -5 0 -13 -5 -16 -11z"/>
<path d="M1645 669 c-4 -6 -16 -9 -26 -6 -26 7 -24 -10 2 -18 23 -8 59 18 41
29 -6 3 -14 1 -17 -5z"/>
<path d="M1780 665 c7 -8 17 -15 22 -15 6 0 5 7 -2 15 -7 8 -17 15 -22 15 -6
0 -5 -7 2 -15z"/>
<path d="M1560 651 c0 -6 4 -13 10 -16 6 -3 7 1 4 9 -7 18 -14 21 -14 7z"/>
<path d="M1700 650 c0 -5 5 -10 11 -10 5 0 7 5 4 10 -3 6 -8 10 -11 10 -2 0
-4 -4 -4 -10z"/>
<path d="M1747 643 c-3 -5 -1 -17 4 -28 7 -17 8 -17 8 8 1 27 -4 34 -12 20z"/>
<path d="M1688 623 c-23 -6 -24 -25 -2 -21 10 2 19 -3 22 -11 3 -10 0 -12 -11
-8 -9 3 -19 2 -22 -2 -3 -5 3 -12 12 -15 9 -4 19 -2 23 4 4 6 14 8 23 4 15 -5
15 -3 1 25 -9 17 -19 30 -22 30 -4 -1 -15 -3 -24 -6z"/>
<path d="M1470 580 c0 -5 5 -10 11 -10 5 0 7 5 4 10 -3 6 -8 10 -11 10 -2 0
-4 -4 -4 -10z"/>
<path d="M1775 559 c-10 -15 3 -25 16 -12 7 7 7 13 1 17 -6 3 -14 1 -17 -5z"/>
<path d="M1903 546 c7 -14 15 -22 19 -20 14 9 9 23 -11 33 -17 10 -18 8 -8
-13z"/>
<path d="M1485 550 c-3 -5 1 -10 10 -10 9 0 13 5 10 10 -3 6 -8 10 -10 10 -2
0 -7 -4 -10 -10z"/>
<path d="M1517 526 c-4 -10 -1 -13 9 -9 7 3 14 9 14 14 0 14 -17 10 -23 -5z"/>
<path d="M1002 498 c3 -7 15 -14 29 -16 24 -4 24 -3 4 12 -24 19 -38 20 -33 4z"/>
<path d="M1448 473 c7 -3 16 -2 19 1 4 3 -2 6 -13 5 -11 0 -14 -3 -6 -6z"/>
<path d="M1086 444 c-4 -10 -1 -14 6 -12 15 5 23 28 10 28 -5 0 -13 -7 -16
-16z"/>
<path d="M1355 449 c-4 -6 -5 -12 -2 -15 2 -3 7 2 10 11 7 17 1 20 -8 4z"/>
<path d="M991 441 c-10 -7 -10 -10 -1 -16 6 -4 16 -3 22 3 13 13 -4 23 -21 13z"/>
<path d="M1374 418 c-5 -8 0 -9 15 -5 18 4 21 2 16 -14 -5 -16 -1 -19 25 -19
18 0 29 4 25 10 -3 6 1 10 9 10 9 0 16 5 16 10 0 6 -9 10 -20 10 -11 0 -20 -7
-20 -15 0 -8 -5 -15 -12 -15 -6 0 -8 3 -5 7 9 8 -12 33 -29 33 -7 0 -16 -5
-20 -12z"/>
<path d="M910 410 c0 -5 5 -10 10 -10 6 0 10 5 10 10 0 6 -4 10 -10 10 -5 0
-10 -4 -10 -10z"/>
<path d="M1126 402 c-3 -5 1 -15 9 -22 16 -14 20 -3 6 19 -5 8 -11 9 -15 3z"/>
<path d="M1350 403 c7 -3 4 -10 -7 -19 -24 -18 -38 -18 -23 1 10 12 9 15 -8
15 -11 0 -27 -10 -35 -22 -13 -19 -16 -20 -16 -5 -1 23 -51 24 -51 1 0 -12 -7
-15 -25 -12 -30 6 -34 -8 -4 -17 13 -4 27 0 40 11 18 16 19 16 19 -4 0 -12 -6
-22 -14 -22 -7 0 -16 -9 -19 -20 -3 -12 -14 -20 -26 -20 -12 0 -21 -5 -21 -11
0 -7 11 -9 30 -6 34 7 37 3 15 -19 -8 -9 -15 -11 -15 -5 0 6 -5 11 -11 11 -8
0 -8 -5 1 -15 10 -12 16 -13 27 -4 11 10 19 7 41 -13 27 -25 112 -46 112 -27
0 16 29 10 39 -8 7 -14 12 -15 23 -5 8 6 18 8 23 4 4 -4 4 3 1 16 -5 15 -3 22
6 22 10 0 9 3 -2 10 -13 9 -13 10 0 10 19 0 42 -15 41 -26 -1 -5 10 -10 24
-12 14 -2 25 2 25 8 0 6 -7 10 -16 8 -23 -4 -27 31 -7 51 12 12 17 13 21 3 4
-14 42 -17 42 -3 0 6 16 7 35 4 24 -4 35 -2 35 6 0 7 -8 10 -17 7 -10 -3 -24
-2 -32 3 -9 6 -21 5 -33 -2 -15 -10 -21 -9 -28 3 -9 13 -11 13 -19 1 -8 -12
-12 -12 -25 -2 -19 16 -97 17 -125 1 -12 -6 -21 -7 -21 -2 0 18 -62 23 -91 8
-16 -8 -29 -11 -29 -6 0 10 30 35 44 35 6 0 30 11 54 23 41 22 51 43 24 48 -8
2 -8 0 -2 -3z m-50 -43 c0 -5 -4 -10 -10 -10 -5 0 -10 5 -10 10 0 6 5 10 10
10 6 0 10 -4 10 -10z m-10 -60 c0 -5 -5 -10 -11 -10 -5 0 -7 5 -4 10 3 6 8 10
11 10 2 0 4 -4 4 -10z m45 -10 c3 -5 -1 -10 -9 -10 -9 0 -16 5 -16 10 0 6 4
10 9 10 6 0 13 -4 16 -10z m-42 -30 c20 -11 37 -16 37 -11 0 16 25 19 39 4 12
-13 11 -14 -8 -8 -22 7 -31 -10 -8 -18 6 -2 9 -7 6 -11 -3 -3 -20 1 -37 10
-18 8 -37 12 -43 8 -8 -4 -9 -3 -5 4 5 8 0 12 -13 12 -12 0 -21 7 -21 15 0 20
8 19 53 -5z m134 12 c7 -5 9 -13 3 -22 -7 -11 -11 -11 -24 -1 -29 24 -11 43
21 23z m63 4 c0 -11 -19 -15 -25 -6 -3 5 1 10 9 10 9 0 16 -2 16 -4z m-71 -45
c7 -5 12 -14 10 -20 -3 -7 -11 -3 -21 9 -18 21 -13 26 11 11z"/>
<path d="M905 320 c3 -5 16 -10 28 -9 21 0 21 1 2 9 -28 12 -37 12 -30 0z"/>
<path d="M841 304 c0 -11 3 -14 6 -6 3 7 2 16 -1 19 -3 4 -6 -2 -5 -13z"/>
<path d="M880 300 c0 -5 5 -10 11 -10 5 0 7 5 4 10 -3 6 -8 10 -11 10 -2 0 -4
-4 -4 -10z"/>
<path d="M1100 301 c0 -8 90 -3 99 5 2 2 -19 4 -47 4 -29 0 -52 -4 -52 -9z"/>
<path d="M1031 274 c0 -11 3 -14 6 -6 3 7 2 16 -1 19 -3 4 -6 -2 -5 -13z"/>
<path d="M907 239 c7 -7 15 -10 18 -7 3 3 -2 9 -12 12 -14 6 -15 5 -6 -5z"/>
<path d="M1855 230 c3 -5 8 -10 11 -10 2 0 4 5 4 10 0 6 -5 10 -11 10 -5 0 -7
-4 -4 -10z"/>
<path d="M1579 213 c-13 -16 -12 -17 4 -4 16 13 21 21 13 21 -2 0 -10 -8 -17
-17z"/>
<path d="M825 210 c3 -5 11 -10 16 -10 6 0 7 5 4 10 -3 6 -11 10 -16 10 -6 0
-7 -4 -4 -10z"/>
<path d="M955 210 c3 -5 8 -10 11 -10 2 0 4 5 4 10 0 6 -5 10 -11 10 -5 0 -7
-4 -4 -10z"/>
<path d="M1165 210 c3 -5 8 -10 11 -10 2 0 4 5 4 10 0 6 -5 10 -11 10 -5 0 -7
-4 -4 -10z"/>
<path d="M997 203 c-4 -3 -7 -15 -7 -25 0 -21 -4 -22 -32 -7 -16 9 -23 8 -29
-2 -7 -12 -11 -11 -19 1 -9 13 -11 13 -20 0 -5 -8 -10 -10 -10 -5 0 6 -6 3
-13 -6 -7 -9 -19 -19 -27 -22 -20 -10 19 -2 43 8 15 6 17 4 11 -19 -3 -15 -2
-26 4 -26 12 0 30 21 30 35 0 5 5 11 11 13 6 2 11 -4 11 -13 0 -16 2 -16 24
-2 26 17 36 13 36 -13 0 -12 9 -17 30 -17 17 0 30 4 30 9 0 4 -7 8 -15 8 -9 0
-20 11 -25 24 -5 13 -13 27 -19 30 -6 4 -8 13 -4 21 5 16 1 20 -10 8z"/>
<path d="M1030 187 c0 -9 5 -19 10 -22 6 -4 8 -11 5 -16 -4 -5 -2 -9 4 -9 5 0
16 -3 25 -6 9 -3 16 -1 16 5 0 6 -6 11 -14 11 -7 0 -20 7 -27 16 -12 15 -10
16 19 10 21 -5 32 -4 32 3 0 6 -6 11 -12 11 -7 0 -23 3 -35 6 -17 5 -23 2 -23
-9z"/>
<path d="M795 180 c-3 -5 1 -10 9 -10 9 0 16 5 16 10 0 6 -4 10 -9 10 -6 0
-13 -4 -16 -10z"/>
<path d="M1433 155 c0 -8 4 -12 9 -9 5 3 6 10 3 15 -9 13 -12 11 -12 -6z"/>
<path d="M1105 130 c-6 -9 1 -14 16 -12 4 1 9 -8 12 -18 3 -11 1 -20 -4 -20
-5 0 -9 -8 -8 -17 0 -11 3 -13 6 -5 6 14 33 16 33 2 0 -5 7 -10 15 -10 8 0 15
5 15 10 0 6 -5 10 -11 10 -5 0 -7 5 -4 10 3 6 1 10 -4 10 -6 0 -11 9 -11 19 0
26 -42 42 -55 21z"/>
<path d="M1370 114 c0 -8 5 -12 10 -9 6 4 8 11 5 16 -9 14 -15 11 -15 -7z"/>
<path d="M865 100 c3 -5 8 -10 11 -10 2 0 4 5 4 10 0 6 -5 10 -11 10 -5 0 -7
-4 -4 -10z"/>
<path d="M1395 80 c-3 -5 1 -10 9 -10 9 0 16 5 16 10 0 6 -4 10 -9 10 -6 0
-13 -4 -16 -10z"/>
<path d="M1250 70 c0 -6 7 -10 15 -10 8 0 15 2 15 4 0 2 -7 6 -15 10 -8 3 -15
1 -15 -4z"/>
<path d="M1210 50 c20 -13 33 -13 25 0 -3 6 -14 10 -23 10 -15 0 -15 -2 -2
-10z"/>
<path d="M965 40 c-3 -6 5 -10 19 -10 14 0 28 5 31 10 3 6 -5 10 -19 10 -14 0
-28 -4 -31 -10z"/>
</g>
</svg>
